<svg xmlns="http://www.w3.org/2000/svg" xmlns:xlink="http://www.w3.org/1999/xlink" width="400" zoomAndPan="magnify" viewBox="0 0 300 299.999988" height="400" preserveAspectRatio="xMidYMid meet" version="1.0"><defs><clipPath id="88cfb80a39"><path d="M 4.015625 13.898438 L 295.761719 13.898438 L 295.761719 286.148438 L 4.015625 286.148438 Z M 4.015625 13.898438 " clip-rule="nonzero"/></clipPath><clipPath id="3239040490"><path d="M 26.515625 13.898438 L 273.480469 13.898438 C 279.449219 13.898438 285.171875 16.269531 289.390625 20.488281 C 293.609375 24.707031 295.980469 30.429688 295.980469 36.398438 L 295.980469 263.589844 C 295.980469 269.558594 293.609375 275.28125 289.390625 279.5 C 285.171875 283.71875 279.449219 286.089844 273.480469 286.089844 L 26.515625 286.089844 C 20.550781 286.089844 14.828125 283.71875 10.605469 279.5 C 6.386719 275.28125 4.015625 269.558594 4.015625 263.589844 L 4.015625 36.398438 C 4.015625 30.429688 6.386719 24.707031 10.605469 20.488281 C 14.828125 16.269531 20.550781 13.898438 26.515625 13.898438 Z M 26.515625 13.898438 " clip-rule="nonzero"/></clipPath><clipPath id="2f628a56e5"><path d="M 74.246094 74.246094 L 225.746094 74.246094 L 225.746094 225.746094 L 74.246094 225.746094 Z M 74.246094 74.246094 " clip-rule="nonzero"/></clipPath><clipPath id="237c17a341"><path d="M 149.996094 74.246094 C 108.160156 74.246094 74.246094 108.160156 74.246094 149.996094 C 74.246094 191.832031 108.160156 225.746094 149.996094 225.746094 C 191.832031 225.746094 225.746094 191.832031 225.746094 149.996094 C 225.746094 108.160156 191.832031 74.246094 149.996094 74.246094 Z M 149.996094 74.246094 " clip-rule="nonzero"/></clipPath><clipPath id="d7f4281431"><path d="M 225.753906 52.179688 L 255.40625 52.179688 L 255.40625 81.832031 L 225.753906 81.832031 Z M 225.753906 52.179688 " clip-rule="nonzero"/></clipPath><clipPath id="50f6fc90c4"><path d="M 240.578125 52.179688 C 232.390625 52.179688 225.753906 58.820312 225.753906 67.007812 C 225.753906 75.195312 232.390625 81.832031 240.578125 81.832031 C 248.765625 81.832031 255.40625 75.195312 255.40625 67.007812 C 255.40625 58.820312 248.765625 52.179688 240.578125 52.179688 Z M 240.578125 52.179688 " clip-rule="nonzero"/></clipPath></defs><g clip-path="url(#88cfb80a39)"><g clip-path="url(#3239040490)"><path stroke-linecap="butt" transform="matrix(0.75, 0, 0, 0.75, 4.0173, 13.898834)" fill="none" stroke-linejoin="miter" d="M 29.997771 -0.000528327 L 359.284278 -0.000528327 C 367.242612 -0.000528327 374.872821 3.16093 380.497822 8.785931 C 386.122823 14.410932 389.284282 22.041142 389.284282 29.999476 L 389.284282 332.921395 C 389.284282 340.87973 386.122823 348.509939 380.497822 354.13494 C 374.872821 359.759941 367.242612 362.9214 359.284278 362.9214 L 29.997771 362.9214 C 22.044645 362.9214 14.414436 359.759941 8.784226 354.13494 C 3.159226 348.509939 -0.00223312 340.87973 -0.00223312 332.921395 L -0.00223312 29.999476 C -0.00223312 22.041142 3.159226 14.410932 8.784226 8.785931 C 14.414436 3.16093 22.044645 -0.000528327 29.997771 -0.000528327 Z M 29.997771 -0.000528327 " stroke="#ffffff" stroke-width="32" stroke-opacity="1" stroke-miterlimit="4"/></g></g><g clip-path="url(#2f628a56e5)"><g clip-path="url(#237c17a341)"><path stroke-linecap="butt" transform="matrix(0.75, 0, 0, 0.75, 74.246191, 74.246185)" fill="none" stroke-linejoin="miter" d="M 100.999878 -0.000121849 C 45.218624 -0.000121849 -0.000129849 45.218632 -0.000129849 100.999886 C -0.000129849 156.781141 45.218624 201.999895 100.999878 201.999895 C 156.781133 201.999895 201.999887 156.781141 201.999887 100.999886 C 201.999887 45.218632 156.781133 -0.000121849 100.999878 -0.000121849 Z M 100.999878 -0.000121849 " stroke="#ffffff" stroke-width="32" stroke-opacity="1" stroke-miterlimit="4"/></g></g><g clip-path="url(#d7f4281431)"><g clip-path="url(#50f6fc90c4)"><path fill="#ffffff" d="M 225.753906 52.179688 L 255.40625 52.179688 L 255.40625 81.832031 L 225.753906 81.832031 Z M 225.753906 52.179688 " fill-opacity="1" fill-rule="nonzero"/></g></g></svg>