<svg xmlns="http://www.w3.org/2000/svg" xmlns:xlink="http://www.w3.org/1999/xlink" width="400" zoomAndPan="magnify" viewBox="0 0 300 299.999988" height="400" preserveAspectRatio="xMidYMid meet" version="1.0"><defs><g/><clipPath id="1861cba556"><path d="M 4.015625 13.898438 L 295.761719 13.898438 L 295.761719 286.148438 L 4.015625 286.148438 Z M 4.015625 13.898438 " clip-rule="nonzero"/></clipPath><clipPath id="927862019e"><path d="M 26.515625 13.898438 L 273.480469 13.898438 C 279.449219 13.898438 285.171875 16.269531 289.390625 20.488281 C 293.609375 24.707031 295.980469 30.429688 295.980469 36.398438 L 295.980469 263.589844 C 295.980469 269.558594 293.609375 275.28125 289.390625 279.5 C 285.171875 283.71875 279.449219 286.089844 273.480469 286.089844 L 26.515625 286.089844 C 20.550781 286.089844 14.828125 283.71875 10.605469 279.5 C 6.386719 275.28125 4.015625 269.558594 4.015625 263.589844 L 4.015625 36.398438 C 4.015625 30.429688 6.386719 24.707031 10.605469 20.488281 C 14.828125 16.269531 20.550781 13.898438 26.515625 13.898438 Z M 26.515625 13.898438 " clip-rule="nonzero"/></clipPath></defs><g clip-path="url(#1861cba556)"><g clip-path="url(#927862019e)"><path stroke-linecap="butt" transform="matrix(0.75, 0, 0, 0.75, 4.0173, 13.898834)" fill="none" stroke-linejoin="miter" d="M 29.997771 -0.000528327 L 359.284278 -0.000528327 C 367.242612 -0.000528327 374.872821 3.16093 380.497822 8.785931 C 386.122823 14.410932 389.284282 22.041142 389.284282 29.999476 L 389.284282 332.921395 C 389.284282 340.87973 386.122823 348.509939 380.497822 354.13494 C 374.872821 359.759941 367.242612 362.9214 359.284278 362.9214 L 29.997771 362.9214 C 22.044645 362.9214 14.414436 359.759941 8.784226 354.13494 C 3.159226 348.509939 -0.00223312 340.87973 -0.00223312 332.921395 L -0.00223312 29.999476 C -0.00223312 22.041142 3.159226 14.410932 8.784226 8.785931 C 14.414436 3.16093 22.044645 -0.000528327 29.997771 -0.000528327 Z M 29.997771 -0.000528327 " stroke="#ffffff" stroke-width="32" stroke-opacity="1" stroke-miterlimit="4"/></g></g><g fill="#ffffff" fill-opacity="1"><g transform="translate(48.679404, 261.249515)"><g><path d="M 191.5625 0 L 13.03125 0 L 13.03125 -10.90625 C 26.570312 -12.019531 35.082031 -13.765625 38.5625 -16.140625 C 42.050781 -18.515625 43.796875 -22.882812 43.796875 -29.25 L 43.796875 -183.6875 C 43.796875 -190.757812 41.09375 -195.757812 35.6875 -198.6875 C 30.28125 -201.625 22.726562 -203.492188 13.03125 -204.296875 L 13.03125 -215.0625 L 179.4375 -215.0625 L 179.4375 -163.234375 L 168.234375 -163.234375 C 166.109375 -171.109375 162.085938 -178.785156 156.171875 -186.265625 C 150.265625 -193.742188 145.1875 -198.390625 140.9375 -200.203125 C 136.695312 -202.023438 126.34375 -202.9375 109.875 -202.9375 L 76.078125 -202.9375 L 76.078125 -117.609375 L 100.328125 -117.609375 C 111.742188 -117.609375 119.976562 -120.160156 125.03125 -125.265625 C 130.082031 -130.367188 133.617188 -139.535156 135.640625 -152.765625 L 146.859375 -152.765625 L 146.859375 -68.65625 L 135.640625 -68.65625 C 135.140625 -73.707031 133.726562 -79.640625 131.40625 -86.453125 C 129.082031 -93.273438 125.769531 -98.101562 121.46875 -100.9375 C 117.175781 -103.769531 110.128906 -105.1875 100.328125 -105.1875 L 76.078125 -105.1875 L 76.078125 -40.625 C 76.078125 -28.289062 78.019531 -20.503906 81.90625 -17.265625 C 85.800781 -14.035156 96.035156 -12.421875 112.609375 -12.421875 L 125.796875 -12.421875 C 139.941406 -12.421875 149.488281 -13.53125 154.4375 -15.75 C 159.382812 -17.976562 164.835938 -24.09375 170.796875 -34.09375 C 176.765625 -44.101562 181.414062 -53.851562 184.75 -63.34375 L 195.515625 -63.34375 Z M 191.5625 0 "/></g></g></g></svg>